# xmcd
# Copyright (C) 1995-1998 Ti Kan
#
# Track frame offsets:
#       150
#       13437
#       30342
#       44391
#       69192
#       74977
#       92166
#       105476
#       116935
#       135208
#       150626
#       157477
#       169355
#       191717
#       209629
#       222971
#       240893
#       271066
#       290093
#
# Disc length: 4376 seconds
#
# Revision: 1
# Processed by: cddbd v1.5.2PL0 Copyright (c) Steve Scherf et al.
# Submitted via: CD-Transfer v1.0
#
DISCID=23111613
DTITLE=Young, Neil - Neil Young
DYEAR=70
DGENRE=
TTITLE0=Tell Me Why
TTITLE1=After The Gold Rush
TTITLE2=Only Love Can Break Your Heart
TTITLE3=Southern Man
TTITLE4='till The Morning Comes
TTITLE5=Oh, Lonesome Me
TTITLE6=Don't Let It Bring You Down
TTITLE7=Birds
TTITLE8=When You Dance, I Can Really Love
TTITLE9=I Believe In You
TTITLE10=Cripple Creek Ferry
TTITLE11=Walk On
TTITLE12=See The Sky About The Rain
TTITLE13=Revolution Blues
TTITLE14=For The Turnstiles
TTITLE15=Vampire Blues
TTITLE16=On The Beach
TTITLE17=Motion Pictures
TTITLE18=Ambulance Blues
EXTD=
EXTT0=
EXTT1=
EXTT2=
EXTT3=
EXTT4=
EXTT5=
EXTT6=
EXTT7=
EXTT8=
EXTT9=
EXTT10=
EXTT11=
EXTT12=
EXTT13=
EXTT14=
EXTT15=
EXTT16=
EXTT17=
EXTT18=
PLAYORDER=
